<?xml version="1.0" standalone="no"?>
<!DOCTYPE svg PUBLIC "-//W3C//DTD SVG 20010904//EN"
 "http://www.w3.org/TR/2001/REC-SVG-20010904/DTD/svg10.dtd">
<svg version="1.0" xmlns="http://www.w3.org/2000/svg"
 width="1024.000000pt" height="1024.000000pt" viewBox="0 0 1024.000000 1024.000000"
 preserveAspectRatio="xMidYMid meet">
<metadata>
Created by potrace 1.11, written by Peter Selinger 2001-2013
</metadata>
<g transform="translate(0.000000,1024.000000) scale(0.100000,-0.100000)"
fill="#000000" stroke="none">
<path d="M0 5120 l0 -5120 5120 0 5120 0 0 5120 0 5120 -5120 0 -5120 0 0
-5120z m5570 3095 c752 -54 1401 -225 2032 -536 630 -311 1118 -722 1453
-1224 162 -243 275 -493 341 -751 55 -217 68 -332 69 -574 0 -280 -29 -475
-107 -720 -184 -577 -646 -1145 -1263 -1557 -630 -419 -1388 -688 -2235 -793
-488 -60 -1124 -52 -1604 21 -71 10 -137 19 -146 19 -10 0 -64 -43 -121 -96
-511 -474 -1116 -791 -1865 -978 -149 -37 -386 -79 -515 -91 -64 -6 -83 -4
-121 13 -25 11 -54 32 -65 48 -58 83 -35 134 130 286 319 293 442 456 559 734
47 113 118 388 147 569 12 72 23 142 26 156 3 23 -4 31 -71 74 -736 466 -1262
1166 -1399 1860 -174 879 160 1744 935 2419 661 576 1583 963 2603 1092 342
43 852 55 1217 29z"/>
<path d="M3096 5725 c-95 -24 -193 -82 -272 -160 -132 -132 -191 -283 -181
-470 6 -128 33 -212 98 -309 147 -220 415 -322 674 -256 208 53 386 230 439
436 21 80 21 238 0 317 -50 192 -208 364 -394 428 -84 29 -275 36 -364 14z"/>
<path d="M4963 5726 c-197 -50 -373 -220 -436 -421 -30 -99 -30 -262 0 -360
64 -202 253 -378 450 -420 212 -45 414 10 566 154 83 79 138 166 170 266 30
98 30 261 0 360 -57 182 -210 342 -389 407 -74 27 -279 35 -361 14z"/>
<path d="M6826 5724 c-107 -26 -184 -71 -276 -164 -131 -131 -180 -249 -180
-435 0 -188 62 -332 195 -453 280 -256 723 -201 935 114 72 109 95 189 95 339
0 150 -23 230 -96 339 -88 132 -220 228 -360 261 -79 18 -235 18 -313 -1z"/>
</g>
</svg>
